<?xml version="1.0" encoding="utf-8"?>
<svg version="1.1" id="Warstwa_1" xmlns="http://www.w3.org/2000/svg" xmlns:xlink="http://www.w3.org/1999/xlink" x="0px" y="0px"
	viewBox="0 0 1100 600" xml:space="preserve">
  <style>
    .circle-animation {
      animation: smooth 0s ease-in-out infinite, 
      scalation 2s ease-in-out infinite, 
      flipX 0s ease-in-out infinite;
    }

    .lines {
      fill: url(#line-gradient) #3b5469;
      stroke: url(#line-gradient) #3b5469;
      stroke-width: 5;
      stroke-linecap:"round";
    }
        
    .circle {
      fill: url(#circle-gradient) #df231d;
      filter: url(#glow);
    }


    @keyframes smooth {
      0%    { opacity: 1; }
      50%  { opacity: 0.6; }
      100%  { opacity: 1; }
    }


    @keyframes scalation {
      0%    { transform: scale(1) ; transform-origin: 507px 300px;}
      50%  { transform: scale(0.90); transform-origin: 507px 300px;}
      100% { transform: scale(1); transform-origin: 507px 300px;}
    }

    @keyframes glow {
      0%    { box-shadow: 0px 0px 0px 0px rgba(0,0,0,0.75);}
      50%  { box-shadow: 0px 0px 55px 0px rgba(0,0,0,0.75);}
      100% { box-shadow: 0px 0px 0px 0px rgba(0,0,0,0.75);}
    }

    @keyframes flipX {
      0%    { transform: scaleX(1);  transform-origin: 507px 300px;}
      50%  { transform: scaleX(-1); transform-origin: 507px 300px;}
      100% { transform: scaleX(1); transform-origin: 507px 300px;}
    }

    @keyframes rotation {
      0%    { transform:  rotate(0deg); transform-origin: 507px 300px;}
      50%  { transform:  rotate(180deg); transform-origin: 507px 300px;}
      100% { transform:  rotate(360deg); transform-origin: 507px 300px;}
    }
    </style>
  <linearGradient id="circle-gradient" x2="0" y2="1">
    <stop offset="0%" stop-color="#f1936c" />
    <stop offset="100%" stop-color="#df231d" />
  </linearGradient>
  <linearGradient id="line-gradient" x2="0" y2="1">
    <stop offset="0%" stop-color="#3a5166" />
    <stop offset="100%" stop-color="#1d212A" />
  </linearGradient>
  
  <filter id="blur-filter" x="-2" y="-2" width="5" height="5">
      <feGaussianBlur in="SourceGraphic" stdDeviation="2" />
  </filter>
  <filter id="glow" x="-40%" y="-40%" height="200%" width="200%">
    <feGaussianBlur id="blur1" result="blurOut" in="offOut" stdDeviation="10" />
    <feBlend in="SourceGraphic" in2="blurOut" mode="normal" />
    <feMerge>
      <feMergeNode in="coloredBlur"/>
      <feMergeNode in="SourceGraphic"/>
    </feMerge>
  </filter>
  <animate xlink:href="#blur1" attributeName="stdDeviation"
    from="0" to="20" dur="3s" begin="0s" values="0; 50; 0;"
    keyTimes="0; 0.5; 1" repeatCount="indefinite"/>
  
  <path class="lines" 
        d="m 100,600 c -51.984,-1.303 -95.01,-8.781 -95.01,-87.29 l 0,0 0,-427.481 c 0,-23.113 9.231,-77.126 96.106,-79.55 l 0,0 324.609,0 c 24.348,0 44.102,19.751 44.102,44.12 l 0,0 c 0,24.357 -19.754,44.119 -44.102,44.119 l 0,0 -323.37,-0.018 c -3.716,0.097 -6.715,0.323 -9.104,0.582 l 0,0 0,417.051 c 2.928,0.1 5.729,0.182 7.865,0.243 l 0,0 324.609,0 c 24.348,0 44.102,19.753 44.102,44.113 l 0,0 c 0,24.367 -19.754,44.119 -44.102,44.119 l 0,0 -325.705,-0.008 z" />
  
  <path class="lines"
        d="m 588,600 c -24.37,0 -44.123,-19.752 -44.123,-44.119 l 0,0 c 0,-24.36 19.753,-44.113 44.123,-44.113 l 0,0 323.494,0.009 c 2.584,-0.063 5.762,-0.152 8.981,-0.26 l 0,0 -0.021,-417.097 c -2.137,-0.232 -4.723,-0.412 -7.866,-0.51 l 0,0 -324.588,0 c -24.37,0 -44.123,-19.762 -44.123,-44.119 l 0,0 c 0,-24.369 19.753,-44.12 44.123,-44.12 l 0,0 325.826,0.008 c 85.638,2.416 94.887,56.429 94.887,79.542 l 0,0 0,427.481 c 0,78.509 -43.044,85.987 -96.125,87.298 l 0,0 -324.588,0 z" />

  <!--<path class="circle circle-animation"
        d="m 495.767,414.091 c 0,-63.81 51.734,-115.543 115.553,-115.543 l 0,0 c 63.819,0 115.535,51.733 115.535,115.543 l 0,0 c 0,63.82 -51.716,115.563 -115.535,115.563 l 0,0 c -63.819,0 -115.553,-51.743 -115.553,-115.563" />  -->
  <!--<path d="M 98,10 L 10,10 L 10,128 L 98,128" stroke-linecap="round" stroke-linejoin="round"/>
  <path  d="M 148,10 L 228,10 L 228,128 L 148,128" stroke-linecap="round" stroke-linejoin="round"/>-->

  <circle class="circle circle-animation" id="circle" cx="507" cy="300" r="115"/>
  
  <!--<circle class="" stroke="black" stroke-width="3" fill="black" cx="507" cy="300" r="1"/>-->
</svg>